<svg width="220" height="80" viewBox="0 0 220 80" fill="none" xmlns="http://www.w3.org/2000/svg">
<path d="M40 10C30 10 20 20 20 35C20 55 30 65 40 65C45 65 48 60 50 55C52 60 55 65 60 65C70 65 80 55 80 35C80 20 70 10 60 10H40Z" stroke="#2F80ED" stroke-width="4"/>
<path d="M35 40C45 46.6667 55 46.6667 65 40" stroke="black" stroke-width="3" stroke-linecap="round"/>
<path d="M85.9395 36.9443L89.5957 36.5889C89.8158 37.8161 90.2601 38.7174 90.9287 39.293C91.6058 39.8685 92.5156 40.1562 93.6582 40.1562C94.8685 40.1562 95.7783 39.9023 96.3877 39.3945C97.0055 38.8783 97.3145 38.2773 97.3145 37.5918C97.3145 37.1517 97.1833 36.7793 96.9209 36.4746C96.667 36.1615 96.2184 35.8906 95.5752 35.6621C95.1351 35.5098 94.1322 35.2389 92.5664 34.8496C90.5521 34.3503 89.1387 33.7367 88.3262 33.0088C87.1836 31.9847 86.6123 30.7363 86.6123 29.2637C86.6123 28.3158 86.8789 27.4313 87.4121 26.6104C87.9538 25.7809 88.7282 25.1504 89.7354 24.7188C90.751 24.2871 91.974 24.0713 93.4043 24.0713C95.7402 24.0713 97.4964 24.5833 98.6729 25.6074C99.8577 26.6315 100.48 27.9984 100.539 29.708L96.7812 29.873C96.6204 28.9167 96.2734 28.2311 95.7402 27.8164C95.2155 27.3932 94.4242 27.1816 93.3662 27.1816C92.2744 27.1816 91.4196 27.4059 90.8018 27.8545C90.404 28.1423 90.2051 28.5273 90.2051 29.0098C90.2051 29.4499 90.3913 29.8265 90.7637 30.1396C91.2376 30.5374 92.3887 30.9521 94.2168 31.3838C96.0449 31.8154 97.3949 32.264 98.2666 32.7295C99.1468 33.1865 99.8324 33.8171 100.323 34.6211C100.823 35.4167 101.072 36.4027 101.072 37.5791C101.072 38.6455 100.776 39.6442 100.184 40.5752C99.5911 41.5062 98.7533 42.2002 97.6699 42.6572C96.5866 43.1058 95.2367 43.3301 93.6201 43.3301C91.2673 43.3301 89.4603 42.7884 88.1992 41.7051C86.9382 40.6133 86.1849 39.0264 85.9395 36.9443ZM103.941 29.5176H107.229V31.3584C108.406 29.9281 109.807 29.2129 111.432 29.2129C112.295 29.2129 113.044 29.3906 113.679 29.7461C114.313 30.1016 114.834 30.639 115.24 31.3584C115.833 30.639 116.472 30.1016 117.157 29.7461C117.843 29.3906 118.575 29.2129 119.354 29.2129C120.344 29.2129 121.182 29.416 121.867 29.8223C122.553 30.2201 123.065 30.8083 123.403 31.5869C123.649 32.1624 123.771 33.0934 123.771 34.3799V43H120.204V35.2939C120.204 33.9567 120.081 33.0934 119.836 32.7041C119.506 32.1963 118.998 31.9424 118.312 31.9424C117.813 31.9424 117.343 32.0947 116.903 32.3994C116.463 32.7041 116.146 33.1527 115.951 33.7451C115.757 34.3291 115.659 35.2559 115.659 36.5254V43H112.092V35.6113C112.092 34.2995 112.028 33.4531 111.901 33.0723C111.774 32.6914 111.576 32.4079 111.305 32.2217C111.042 32.0355 110.683 31.9424 110.226 31.9424C109.675 31.9424 109.18 32.0905 108.74 32.3867C108.3 32.6829 107.983 33.1104 107.788 33.6689C107.602 34.2275 107.509 35.1543 107.509 36.4492V43H103.941V29.5176ZM127.339 27.6895V24.3887H130.906V27.6895H127.339ZM127.339 43V29.5176H130.906V43H127.339ZM134.575 43V24.3887H138.143V43H134.575ZM149.619 38.709L153.174 39.3057C152.717 40.609 151.993 41.6035 151.003 42.2891C150.021 42.9661 148.79 43.3047 147.309 43.3047C144.964 43.3047 143.229 42.5387 142.104 41.0068C141.215 39.7796 140.771 38.2308 140.771 36.3604C140.771 34.126 141.354 32.3783 142.522 31.1172C143.69 29.8477 145.167 29.2129 146.953 29.2129C148.959 29.2129 150.542 29.8773 151.701 31.2061C152.861 32.5264 153.415 34.5534 153.364 37.2871H144.427C144.452 38.3451 144.74 39.1702 145.29 39.7627C145.84 40.3467 146.526 40.6387 147.347 40.6387C147.905 40.6387 148.375 40.4863 148.756 40.1816C149.137 39.877 149.424 39.3861 149.619 38.709ZM149.822 35.1035C149.797 34.071 149.53 33.2881 149.022 32.7549C148.515 32.2132 147.897 31.9424 147.169 31.9424C146.39 31.9424 145.747 32.2259 145.239 32.793C144.731 33.36 144.482 34.1302 144.49 35.1035H149.822ZM168.218 36.1572L171.861 37.3125C171.303 39.3438 170.372 40.8545 169.068 41.8447C167.773 42.8265 166.127 43.3174 164.13 43.3174C161.659 43.3174 159.627 42.4753 158.036 40.791C156.445 39.0983 155.649 36.7878 155.649 33.8594C155.649 30.7617 156.449 28.3581 158.049 26.6484C159.648 24.9303 161.752 24.0713 164.358 24.0713C166.635 24.0713 168.484 24.7441 169.906 26.0898C170.753 26.8854 171.387 28.028 171.811 29.5176L168.091 30.4062C167.871 29.4414 167.41 28.6797 166.707 28.1211C166.013 27.5625 165.167 27.2832 164.168 27.2832C162.788 27.2832 161.667 27.7783 160.804 28.7686C159.949 29.7588 159.521 31.3626 159.521 33.5801C159.521 35.9329 159.945 37.6087 160.791 38.6074C161.637 39.6061 162.738 40.1055 164.092 40.1055C165.09 40.1055 165.95 39.7881 166.669 39.1533C167.388 38.5186 167.905 37.5199 168.218 36.1572ZM177.739 33.6309L174.502 33.0469C174.866 31.7435 175.492 30.7786 176.381 30.1523C177.27 29.526 178.59 29.2129 180.342 29.2129C181.933 29.2129 183.118 29.4033 183.896 29.7842C184.675 30.1566 185.221 30.6348 185.534 31.2188C185.856 31.7943 186.017 32.8564 186.017 34.4053L185.979 38.5693C185.979 39.7542 186.034 40.6302 186.144 41.1973C186.262 41.7559 186.478 42.3568 186.791 43H183.262C183.169 42.763 183.054 42.4118 182.919 41.9463C182.86 41.7347 182.817 41.5951 182.792 41.5273C182.183 42.1198 181.531 42.5641 180.837 42.8604C180.143 43.1566 179.402 43.3047 178.615 43.3047C177.227 43.3047 176.131 42.9281 175.327 42.1748C174.532 41.4215 174.134 40.4694 174.134 39.3184C174.134 38.5566 174.316 37.8796 174.68 37.2871C175.044 36.6862 175.551 36.2292 176.203 35.916C176.863 35.5944 177.811 35.3151 179.047 35.0781C180.714 34.765 181.869 34.473 182.513 34.2021V33.8467C182.513 33.1611 182.343 32.6745 182.005 32.3867C181.666 32.0905 181.027 31.9424 180.088 31.9424C179.453 31.9424 178.958 32.0693 178.603 32.3232C178.247 32.5687 177.959 33.0046 177.739 33.6309ZM182.513 36.5254C182.056 36.6777 181.332 36.8597 180.342 37.0713C179.352 37.2829 178.704 37.4902 178.399 37.6934C177.934 38.0234 177.701 38.4424 177.701 38.9502C177.701 39.4495 177.887 39.8812 178.26 40.2451C178.632 40.609 179.106 40.791 179.682 40.791C180.325 40.791 180.938 40.5794 181.522 40.1562C181.954 39.8346 182.238 39.4411 182.373 38.9756C182.466 38.6709 182.513 38.0911 182.513 37.2363V36.5254ZM192.961 43H189.394V29.5176H192.707V31.4346C193.274 30.529 193.782 29.9323 194.23 29.6445C194.688 29.3568 195.204 29.2129 195.779 29.2129C196.592 29.2129 197.375 29.4372 198.128 29.8857L197.023 32.9961C196.423 32.6068 195.864 32.4121 195.348 32.4121C194.848 32.4121 194.425 32.5518 194.078 32.8311C193.731 33.1019 193.456 33.597 193.253 34.3164C193.058 35.0358 192.961 36.5423 192.961 38.8359V43ZM207.484 38.709L211.039 39.3057C210.582 40.609 209.858 41.6035 208.868 42.2891C207.886 42.9661 206.655 43.3047 205.174 43.3047C202.829 43.3047 201.094 42.5387 199.969 41.0068C199.08 39.7796 198.636 38.2308 198.636 36.3604C198.636 34.126 199.22 32.3783 200.388 31.1172C201.556 29.8477 203.033 29.2129 204.818 29.2129C206.824 29.2129 208.407 29.8773 209.566 31.2061C210.726 32.5264 211.28 34.5534 211.229 37.2871H202.292C202.317 38.3451 202.605 39.1702 203.155 39.7627C203.705 40.3467 204.391 40.6387 205.212 40.6387C205.771 40.6387 206.24 40.4863 206.621 40.1816C207.002 39.877 207.29 39.3861 207.484 38.709ZM207.688 35.1035C207.662 34.071 207.396 33.2881 206.888 32.7549C206.38 32.2132 205.762 31.9424 205.034 31.9424C204.256 31.9424 203.612 32.2259 203.104 32.793C202.597 33.36 202.347 34.1302 202.355 35.1035H207.688Z" fill="#2F80ED"/>
<path d="M96.0801 64V53.9785H99.5322C100.312 53.9785 100.906 54.0264 101.316 54.1221C101.891 54.2542 102.381 54.4935 102.786 54.8398C103.315 55.2865 103.709 55.8584 103.969 56.5557C104.233 57.2484 104.365 58.0413 104.365 58.9346C104.365 59.6956 104.276 60.3701 104.099 60.958C103.921 61.5459 103.693 62.0335 103.415 62.4209C103.137 62.8037 102.832 63.1068 102.499 63.3301C102.171 63.5488 101.772 63.7152 101.303 63.8291C100.838 63.943 100.302 64 99.6963 64H96.0801ZM97.4062 62.8174H99.5459C100.207 62.8174 100.724 62.7559 101.098 62.6328C101.476 62.5098 101.777 62.3366 102 62.1133C102.314 61.7988 102.558 61.3773 102.731 60.8486C102.909 60.3154 102.998 59.6706 102.998 58.9141C102.998 57.8659 102.825 57.0615 102.479 56.501C102.137 55.9359 101.72 55.5576 101.228 55.3662C100.872 55.2295 100.3 55.1611 99.5117 55.1611H97.4062V62.8174ZM111.01 61.6621L112.281 61.8193C112.081 62.5622 111.709 63.1387 111.167 63.5488C110.625 63.959 109.932 64.1641 109.089 64.1641C108.027 64.1641 107.184 63.8382 106.56 63.1865C105.94 62.5303 105.63 61.612 105.63 60.4316C105.63 59.2103 105.944 58.2624 106.573 57.5879C107.202 56.9134 108.018 56.5762 109.021 56.5762C109.991 56.5762 110.784 56.9066 111.399 57.5674C112.015 58.2282 112.322 59.1579 112.322 60.3564C112.322 60.4294 112.32 60.5387 112.315 60.6846H106.901C106.947 61.4821 107.173 62.0928 107.578 62.5166C107.984 62.9404 108.49 63.1523 109.096 63.1523C109.547 63.1523 109.932 63.0339 110.251 62.7969C110.57 62.5599 110.823 62.1816 111.01 61.6621ZM106.97 59.6729H111.023C110.969 59.0622 110.814 58.6042 110.559 58.2988C110.167 57.8249 109.659 57.5879 109.034 57.5879C108.469 57.5879 107.993 57.777 107.605 58.1553C107.223 58.5335 107.011 59.0394 106.97 59.6729ZM113.833 64V56.7402H114.94V57.7725C115.474 56.9749 116.244 56.5762 117.251 56.5762C117.688 56.5762 118.09 56.6559 118.454 56.8154C118.823 56.9704 119.099 57.1755 119.281 57.4307C119.464 57.6859 119.591 57.9889 119.664 58.3398C119.71 58.5677 119.732 58.9665 119.732 59.5361V64H118.502V59.584C118.502 59.0827 118.454 58.709 118.358 58.4629C118.263 58.2122 118.092 58.014 117.846 57.8682C117.604 57.7178 117.319 57.6426 116.991 57.6426C116.467 57.6426 116.014 57.8089 115.631 58.1416C115.253 58.4743 115.063 59.1055 115.063 60.0352V64H113.833ZM124.312 62.8994L124.49 63.9863C124.144 64.0592 123.834 64.0957 123.561 64.0957C123.114 64.0957 122.768 64.0251 122.521 63.8838C122.275 63.7425 122.102 63.5579 122.002 63.3301C121.902 63.0977 121.852 62.6123 121.852 61.874V57.6973H120.949V56.7402H121.852V54.9424L123.075 54.2041V56.7402H124.312V57.6973H123.075V61.9424C123.075 62.2933 123.096 62.5189 123.137 62.6191C123.182 62.7194 123.253 62.7992 123.349 62.8584C123.449 62.9176 123.59 62.9473 123.772 62.9473C123.909 62.9473 124.089 62.9313 124.312 62.8994ZM130.26 63.1045C129.804 63.4919 129.364 63.7653 128.94 63.9248C128.521 64.0843 128.07 64.1641 127.587 64.1641C126.789 64.1641 126.176 63.9704 125.748 63.583C125.32 63.1911 125.105 62.6921 125.105 62.0859C125.105 61.7305 125.185 61.4069 125.345 61.1152C125.509 60.819 125.721 60.582 125.98 60.4043C126.245 60.2266 126.541 60.0921 126.869 60.001C127.111 59.9372 127.475 59.8757 127.963 59.8164C128.956 59.6979 129.688 59.5566 130.157 59.3926C130.162 59.224 130.164 59.1169 130.164 59.0713C130.164 58.57 130.048 58.2168 129.815 58.0117C129.501 57.7337 129.034 57.5947 128.414 57.5947C127.835 57.5947 127.407 57.6973 127.129 57.9023C126.855 58.1029 126.653 58.4606 126.521 58.9756L125.317 58.8115C125.427 58.2965 125.607 57.8818 125.857 57.5674C126.108 57.2484 126.47 57.0046 126.944 56.8359C127.418 56.6628 127.967 56.5762 128.592 56.5762C129.212 56.5762 129.715 56.6491 130.103 56.7949C130.49 56.9408 130.775 57.1253 130.957 57.3486C131.139 57.5674 131.267 57.8454 131.34 58.1826C131.381 58.3923 131.401 58.7705 131.401 59.3174V60.958C131.401 62.1019 131.426 62.8265 131.477 63.1318C131.531 63.4326 131.636 63.722 131.791 64H130.506C130.378 63.7448 130.296 63.4463 130.26 63.1045ZM130.157 60.3564C129.711 60.5387 129.041 60.6937 128.147 60.8213C127.642 60.8942 127.284 60.9762 127.074 61.0674C126.865 61.1585 126.703 61.293 126.589 61.4707C126.475 61.6439 126.418 61.8376 126.418 62.0518C126.418 62.3799 126.541 62.6533 126.787 62.8721C127.038 63.0908 127.402 63.2002 127.881 63.2002C128.355 63.2002 128.776 63.0977 129.146 62.8926C129.515 62.6829 129.786 62.3981 129.959 62.0381C130.091 61.7601 130.157 61.3499 130.157 60.8076V60.3564ZM133.288 64V53.9785H134.519V64H133.288ZM147.637 60.4863L148.963 60.8213C148.685 61.9105 148.184 62.7422 147.459 63.3164C146.739 63.8861 145.857 64.1709 144.813 64.1709C143.733 64.1709 142.854 63.9521 142.175 63.5146C141.5 63.0726 140.985 62.4346 140.63 61.6006C140.279 60.7666 140.104 59.8711 140.104 58.9141C140.104 57.8704 140.302 56.9613 140.698 56.1865C141.099 55.4072 141.667 54.8171 142.4 54.416C143.139 54.0104 143.95 53.8076 144.834 53.8076C145.837 53.8076 146.68 54.0628 147.363 54.5732C148.047 55.0837 148.523 55.8014 148.792 56.7266L147.486 57.0342C147.254 56.305 146.917 55.7741 146.475 55.4414C146.033 55.1087 145.477 54.9424 144.807 54.9424C144.036 54.9424 143.392 55.127 142.872 55.4961C142.357 55.8652 141.995 56.362 141.785 56.9863C141.576 57.6061 141.471 58.2464 141.471 58.9072C141.471 59.7594 141.594 60.5046 141.84 61.1426C142.09 61.776 142.478 62.25 143.002 62.5645C143.526 62.8789 144.093 63.0361 144.704 63.0361C145.447 63.0361 146.076 62.8219 146.591 62.3936C147.106 61.9652 147.454 61.3294 147.637 60.4863ZM150.419 64V53.9785H151.649V64H150.419ZM153.57 55.3936V53.9785H154.801V55.3936H153.57ZM153.57 64V56.7402H154.801V64H153.57ZM156.681 64V56.7402H157.788V57.7725C158.321 56.9749 159.091 56.5762 160.099 56.5762C160.536 56.5762 160.937 56.6559 161.302 56.8154C161.671 56.9704 161.947 57.1755 162.129 57.4307C162.311 57.6859 162.439 57.9889 162.512 58.3398C162.557 58.5677 162.58 58.9665 162.58 59.5361V64H161.35V59.584C161.35 59.0827 161.302 58.709 161.206 58.4629C161.11 58.2122 160.939 58.014 160.693 57.8682C160.452 57.7178 160.167 57.6426 159.839 57.6426C159.315 57.6426 158.861 57.8089 158.479 58.1416C158.1 58.4743 157.911 59.1055 157.911 60.0352V64H156.681ZM164.48 55.3936V53.9785H165.711V55.3936H164.48ZM164.48 64V56.7402H165.711V64H164.48ZM172.328 61.3408L173.538 61.498C173.406 62.332 173.066 62.986 172.52 63.46C171.977 63.9294 171.31 64.1641 170.517 64.1641C169.523 64.1641 168.723 63.8405 168.117 63.1934C167.516 62.5417 167.215 61.6097 167.215 60.3975C167.215 59.6136 167.345 58.9277 167.604 58.3398C167.864 57.752 168.258 57.3122 168.787 57.0205C169.32 56.7243 169.899 56.5762 170.523 56.5762C171.312 56.5762 171.957 56.7767 172.458 57.1777C172.959 57.5742 173.281 58.1393 173.422 58.873L172.226 59.0576C172.112 58.57 171.909 58.2031 171.617 57.957C171.33 57.7109 170.981 57.5879 170.571 57.5879C169.951 57.5879 169.448 57.8112 169.061 58.2578C168.673 58.6999 168.479 59.4017 168.479 60.3633C168.479 61.3385 168.666 62.0472 169.04 62.4893C169.414 62.9313 169.901 63.1523 170.503 63.1523C170.986 63.1523 171.389 63.0042 171.713 62.708C172.036 62.4118 172.242 61.9561 172.328 61.3408Z" fill="black"/>
</svg>
